<svg xmlns="http://www.w3.org/2000/svg" width="1024" height="1024" viewBox="0 0 1024 1024">

  <defs>
    <linearGradient id="bezel" x1="0" y1="0" x2="0" y2="1">
      <stop offset="0" stop-color="#cdd5e2"></stop>
      <stop offset="1" stop-color="#5c6677"></stop>
    </linearGradient>
    <linearGradient id="tile" x1="0" y1="0" x2="0" y2="1">
      <stop offset="0" stop-color="#1b2029"></stop>
      <stop offset="1" stop-color="#0d1015"></stop>
    </linearGradient>
    <clipPath id="clip">
      <path d="M 224 0 H 800 C 923.2 0, 1024 100.8, 1024 224 V 800 C 1024 923.2, 923.2 1024, 800 1024 H 224 C 100.8 1024, 0 923.2, 0 800 V 224 C 0 100.8, 100.8 0, 224 0 Z"></path>
    </clipPath>
  </defs>
  <g clip-path="url(#clip)">
    <rect width="1024" height="1024" fill="url(#tile)"></rect>
    <rect x="2" y="2" width="1020" height="1020" fill="none" stroke="#ffffff" stroke-opacity="0.06" rx="222" ry="222"></rect>
  </g>

  <g transform="translate(512 512) scale(1)">
    <g stroke="#cdd5e2" stroke-width="24" stroke-linecap="round">
      <line x1="0" y1="-425" x2="0" y2="-330"></line>
      <line x1="0" y1="330" x2="0" y2="425"></line>
      <line x1="-425" y1="0" x2="-330" y2="0"></line>
      <line x1="330" y1="0" x2="425" y2="0"></line>
    </g>
    <circle r="448" fill="none" stroke="url(#bezel)" stroke-width="38"></circle>
    <circle r="467" fill="none" stroke="#000" stroke-opacity="0.5" stroke-width="3"></circle>
    <circle r="429" fill="none" stroke="#000" stroke-opacity="0.5" stroke-width="3"></circle>

  <g transform="scale(2.18)" stroke="#7aa2f7" stroke-linecap="round" fill="none">
    <circle r="22" stroke="none" fill="#7aa2f7"></circle>
    <path d="M -55 0 A 55 55 0 0 1 55 0" stroke-width="14"></path>
    <path d="M -90 18 A 92 92 0 0 1 90 18" stroke-width="14" opacity="0.78"></path>
    <path d="M -125 36 A 130 130 0 0 1 125 36" stroke-width="14" opacity="0.55"></path>
  </g>
  </g>
</svg>
